<?xml version="1.0" encoding="utf-8"?>
<!-- Generator: Adobe Illustrator 17.0.0, SVG Export Plug-In . SVG Version: 6.00 Build 0)  -->
<!DOCTYPE svg PUBLIC "-//W3C//DTD SVG 1.1//EN" "http://www.w3.org/Graphics/SVG/1.1/DTD/svg11.dtd">
<svg version="1.1" id="Calque_1" xmlns="http://www.w3.org/2000/svg" xmlns:xlink="http://www.w3.org/1999/xlink" x="0px" y="0px"
	 width="512px" height="512px" viewBox="0 0 512 512" enable-background="new 0 0 512 512" xml:space="preserve">
<g>
	<linearGradient id="SVGID_1_" gradientUnits="userSpaceOnUse" x1="317.2654" y1="161.2654" x2="173.5139" y2="305.017">
		<stop  offset="0" style="stop-color:#FF9263"/>
		<stop  offset="1" style="stop-color:#FF4726"/>
	</linearGradient>
	<path fill="url(#SVGID_1_)" d="M255.999,34.195c-103.806,0-188.258,84.452-188.258,188.258c0,42.701,14.682,84.504,41.331,117.698
		c4.287,5.366,8.93,10.557,13.801,15.428l114.498,114.515c4.981,4.972,11.597,7.71,18.628,7.71s13.647-2.738,18.633-7.715
		l114.493-114.51c4.874-4.875,9.517-10.065,13.791-15.417c26.659-33.206,41.341-75.01,41.341-117.709
		C444.258,118.647,359.806,34.195,255.999,34.195z M393.551,332.661c-4.007,5.017-8.351,9.872-12.911,14.434L266.151,461.601
		c-2.716,2.71-6.321,4.203-10.151,4.203s-7.435-1.493-10.146-4.199l-114.495-114.51c-4.557-4.558-8.901-9.414-12.92-14.444
		c-25.316-31.533-38.698-69.639-38.698-110.197c0-97.189,79.069-176.258,176.258-176.258c97.189,0,176.259,79.069,176.259,176.258
		C432.258,263.011,418.876,301.115,393.551,332.661z"/>
	<linearGradient id="SVGID_2_" gradientUnits="userSpaceOnUse" x1="317.2261" y1="161.2261" x2="173.4746" y2="304.9776">
		<stop  offset="0" style="stop-color:#FF9263"/>
		<stop  offset="1" style="stop-color:#FF4726"/>
	</linearGradient>
	<path fill="url(#SVGID_2_)" d="M255.999,127.852c-52.164,0-94.602,42.438-94.602,94.601s42.438,94.602,94.602,94.602
		c52.163,0,94.602-42.438,94.602-94.602S308.162,127.852,255.999,127.852z M255.999,305.055c-45.547,0-82.602-37.055-82.602-82.602
		c0-45.546,37.055-82.601,82.602-82.601s82.602,37.055,82.602,82.601C338.601,268,301.546,305.055,255.999,305.055z"/>
	<linearGradient id="SVGID_3_" gradientUnits="userSpaceOnUse" x1="236.1539" y1="80.1539" x2="92.4024" y2="223.9054">
		<stop  offset="0" style="stop-color:#FF9263"/>
		<stop  offset="1" style="stop-color:#FF4726"/>
	</linearGradient>
	<path fill="url(#SVGID_3_)" d="M255.999,94.09c3.313,0,6-2.687,6-6s-2.687-6-6-6c-77.396,0-140.363,62.967-140.363,140.363
		c0,3.313,2.687,6,6,6s6-2.687,6-6C127.636,151.673,185.219,94.09,255.999,94.09z"/>
</g>
</svg>
