<svg version="1.1" id="Layer_1" xmlns="http://www.w3.org/2000/svg" xmlns:xlink="http://www.w3.org/1999/xlink" x="0px" y="0px" width="100px" height="100px" viewBox="0 0 100 100" enable-background="new 0 0 100 100" xml:space="preserve">
<g>
<g>
<path fill="none" stroke="#e35416" stroke-width="4" stroke-linecap="round" stroke-linejoin="round" stroke-miterlimit="10" d="
			M74.645,58.819c0.81-2.62,1.25-5.4,1.25-8.29c0-15.38-12.47-27.85-27.85-27.85s-27.85,12.47-27.85,27.85
			c0,12.69,8.48,23.39,20.09,26.74" id="id_116"></path>
<path fill="none" stroke="#000000" stroke-width="4" stroke-linecap="round" stroke-linejoin="round" stroke-miterlimit="10" d="
			M29.087,50.529c0-10.471,8.488-18.959,18.959-18.959" id="id_117"></path>
<line fill="none" stroke="#000000" stroke-width="4" stroke-linecap="round" stroke-linejoin="round" stroke-miterlimit="10" x1="48.045" y1="15.919" x2="48.045" y2="12.057" id="id_118"></line>
<line fill="none" stroke="#000000" stroke-width="4" stroke-linecap="round" stroke-linejoin="round" stroke-miterlimit="10" x1="30.74" y1="20.555" x2="26.879" y2="13.867" id="id_119"></line>
<line fill="none" stroke="#000000" stroke-width="4" stroke-linecap="round" stroke-linejoin="round" stroke-miterlimit="10" x1="18.072" y1="33.224" x2="11.384" y2="29.362" id="id_120"></line>
<line fill="none" stroke="#000000" stroke-width="4" stroke-linecap="round" stroke-linejoin="round" stroke-miterlimit="10" x1="13.435" y1="50.529" x2="9.574" y2="50.529" id="id_121"></line>
<line fill="none" stroke="#000000" stroke-width="4" stroke-linecap="round" stroke-linejoin="round" stroke-miterlimit="10" x1="18.072" y1="67.834" x2="11.384" y2="71.695" id="id_122"></line>
<line fill="none" stroke="#000000" stroke-width="4" stroke-linecap="round" stroke-linejoin="round" stroke-miterlimit="10" x1="30.74" y1="80.502" x2="26.879" y2="87.19" id="id_123"></line>
<line fill="none" stroke="#000000" stroke-width="4" stroke-linecap="round" stroke-linejoin="round" stroke-miterlimit="10" x1="82.655" y1="50.529" x2="86.517" y2="50.529" id="id_124"></line>
<line fill="none" stroke="#000000" stroke-width="4" stroke-linecap="round" stroke-linejoin="round" stroke-miterlimit="10" x1="78.019" y1="33.224" x2="84.707" y2="29.362" id="id_125"></line>
<line fill="none" stroke="#000000" stroke-width="4" stroke-linecap="round" stroke-linejoin="round" stroke-miterlimit="10" x1="65.35" y1="20.555" x2="69.212" y2="13.867" id="id_126"></line>
</g>
<g>
<path fill="none" stroke="#000000" stroke-width="4" stroke-linecap="round" stroke-linejoin="round" stroke-miterlimit="10" d="
			M51.31,87.943c-6.092,0-11.035-4.935-11.035-11.027c0-6.1,4.944-11.035,11.035-11.035c2.706,0,5.187,0.973,7.105,2.598" id="id_127"></path>
<path fill="none" stroke="#000000" stroke-width="4" stroke-linecap="round" stroke-linejoin="round" stroke-miterlimit="10" d="
			M80.195,72.349c0.721-0.218,1.483-0.335,2.271-0.335c4.399,0,7.961,3.569,7.961,7.969c0,4.399-3.561,7.961-7.961,7.961" id="id_128"></path>
<path fill="none" stroke="#000000" stroke-width="4" stroke-linecap="round" stroke-linejoin="round" stroke-miterlimit="10" d="
			M58.416,68.478c0.168-6.024,5.104-10.868,11.17-10.868c6.176,0,11.186,5.011,11.186,11.186c0,1.24-0.201,2.439-0.578,3.553" id="id_129"></path>
<line fill="none" stroke="#000000" stroke-width="4" stroke-linecap="round" stroke-linejoin="round" stroke-miterlimit="10" x1="82.466" y1="87.943" x2="51.31" y2="87.943" id="id_130"></line>
</g>
</g>
</svg>